<?xml version="1.0" encoding="utf-8"?>
<!-- Generator: Adobe Illustrator 25.0.1, SVG Export Plug-In . SVG Version: 6.00 Build 0)  -->
<svg version="1.1" id="Layer_1" xmlns="http://www.w3.org/2000/svg" xmlns:xlink="http://www.w3.org/1999/xlink" x="0px" y="0px"
	 viewBox="0 0 199.1 44.4" style="enable-background:new 0 0 199.1 44.4;" xml:space="preserve">
<style type="text/css">
	.st0{fill:#181756;}
	.st1{fill:#F36B07;}
</style>
<g>
	<path class="st0" d="M63.1,13.9l4.3-0.3h12.3v5.5H63.1L63.1,13.9L63.1,13.9z M67,10.5C67,4.4,69.8,0,76.7,0c2.1,0,4.1,0.5,5.4,1
		l-1.3,5.1c-1.1-0.5-2.2-0.7-3.2-0.7c-2.4,0-3.7,1.5-3.7,5v32.5H67V10.5z"/>
	<path class="st0" d="M82.3,28.3c0-9.5,6.6-15.4,13.5-15.4c7.9,0,12.1,5.7,12.1,13.9c0,1.3-0.1,2.6-0.3,3.3H89
		c0.6,5.2,3.9,8.2,8.7,8.2c2.5,0,4.7-0.8,6.8-2.1l2.3,4.3c-2.8,1.9-6.3,3.2-10.1,3.2C88.7,43.7,82.3,38,82.3,28.3z M102,25.5
		c0-4.5-2-7.3-6-7.3c-3.4,0-6.4,2.6-7,7.3H102z"/>
	<path class="st0" d="M115,33V19h-4.2v-5.2l4.5-0.3l0.8-8h5.7v8h7.5V19h-7.5v14c0,3.5,1.3,5.2,4.2,5.2c1,0,2.2-0.3,3.1-0.7l1.2,5.1
		c-1.6,0.5-3.6,1.1-6,1.1C117.5,43.7,115,39.4,115,33z"/>
	<path class="st0" d="M132.6,28.3c0-9.8,6.9-15.4,14.7-15.4c3.7,0,6.5,1.4,8.6,3.3l-3.3,4.5c-1.6-1.4-3-2.2-4.9-2.2
		c-4.7,0-8,3.9-8,9.8c0,5.9,3.2,9.8,7.8,9.8c2.3,0,4.4-1.1,6.1-2.5l2.8,4.5c-2.8,2.4-6.2,3.6-9.6,3.6
		C138.8,43.7,132.6,38,132.6,28.3z"/>
	<path class="st0" d="M160.7,0.7h6.9v10.9l-0.3,5.7c2.5-2.3,5.4-4.4,9.4-4.4c6.3,0,9,4.3,9,11.7V43h-6.9V25.4c0-4.8-1.4-6.6-4.6-6.6
		c-2.6,0-4.3,1.3-6.7,3.7V43h-6.9V0.7H160.7z"/>
	<path class="st0" d="M190.3,39c0-2.7,1.9-4.7,4.4-4.7s4.4,2,4.4,4.7s-1.9,4.6-4.4,4.6S190.3,41.7,190.3,39z"/>
</g>
<g>
	<g>
		<path class="st1" d="M26,32.4c-0.9,0.5-1.6,1.2-2.4,1.5c-3.3,1.3-7-1.1-7.2-4.7c0-0.6,0-1.3,0.1-1.9c0.1-0.7,0.7-1.1,1.3-1
			c0.7,0.1,1.1,0.7,0.9,1.4c-0.1,0.9-0.2,1.7,0.2,2.5c0.6,1.4,2.2,2.1,3.6,1.7c1.5-0.4,2.4-1.9,2.2-3.4c0-0.2-0.2-0.3-0.3-0.4
			c-0.6-0.5-1.2-1-1.3-1.8c-0.1-0.6,0.1-1.1,0.7-1.3c1.5-0.5,3-0.5,4.5,0c0.7,0.2,1,0.8,0.7,1.5c-0.3,0.8-0.8,1.3-1.5,1.7
			c-0.3,0.1-0.4,0.3-0.4,0.6c0,1.8,1.3,3.2,3,3.2s3-1.3,3.1-3.1c0-0.4,0-0.8-0.1-1.2C33,27,33.4,26.4,34,26.3c0.6-0.1,1.2,0.3,1.3,1
			c0.8,4-1.7,6.5-4.4,6.9c-1.7,0.2-3.2-0.2-4.4-1.4C26.2,32.7,26.1,32.5,26,32.4z"/>
		<path class="st1" d="M34.9,19.6c0,1.4-1.1,2.4-2.4,2.4s-2.4-1.1-2.4-2.4c0-1.3,1.1-2.4,2.4-2.4C33.8,17.1,34.9,18.2,34.9,19.6z"/>
		<path class="st1" d="M17,19.6c0-1.3,1-2.4,2.4-2.4c1.3,0,2.4,1.1,2.5,2.4c0,1.3-1.1,2.4-2.4,2.4C18.1,22,17,20.9,17,19.6z"/>
	</g>
	<path class="st1" d="M51.6,13.4c-0.1-3-1.4-4.8-4.3-5.5c-2.2-0.6-4.5-0.6-6.8-0.9c-0.8-0.1-1.7-0.3-2.4-0.7
		c-8.2-4.7-16.3-4.8-24.5,0C12.9,6.7,12,6.9,11.2,7C8.8,7.4,6.4,7.5,4.1,8c-2.3,0.6-3.7,2.2-3.9,4.6c-0.5,4.2,0.4,8,3,11.4
		c0.1,0.1,0.1,0.2,0.2,0.3c0.6,0.5,1.1,0.9,1.8,1.2c0.2,0,0.4,0,0.7,0.1c0.1,0,0.2-0.1,0.3-0.1c1.6-0.1,2.7-1,3.6-2.2
		c1.8-2.4,3.7-8.3,3.8-11.5c-0.5-0.1-1-0.2-1.5-0.3c-0.5,2-0.9,4-1.5,5.8s-1.4,3.5-2.4,5.1c-1.1,1.7-2.6,1.7-3.8,0
		c-2-2.9-2.7-6.1-2.2-9.6c0.2-1.6,1.1-2.7,2.6-3C7,9.4,9.2,9.1,11.5,8.9c1.2-0.1,2.2-0.2,3.3-1c3.7-2.6,8-3.6,12.5-3.3
		c4,0.3,7.8,1.4,10.9,4c0.3,0.2,0.8,0.2,1.2,0.2C41.8,9,44.2,9,46.5,9.5c2.6,0.5,3.4,1.8,3.5,4.4c0.1,2.9-0.5,5.7-2.1,8.2
		c-1.3,2-2.8,2.1-4.2,0.1c-1.8-2.5-2.5-5.5-3.2-8.5c-0.2-0.7-0.3-1.4-0.5-2.2c-0.6,0.1-1.1,0.2-1.8,0.3c0.9,4.4,1.6,8.8,4.7,12.3
		c0.6,0.7,1.8,1.2,2.8,1.3c0.1,0,0.1,0,0.2,0.1c0.3-0.1,0.7-0.1,1-0.1c0.1,0,0.2-0.1,0.3-0.1c0.2-0.1,0.4-0.2,0.7-0.3
		c0.2-0.2,0.4-0.4,0.7-0.5c0-0.1,0.1-0.3,0.2-0.3C51,20.9,51.8,17.2,51.6,13.4z"/>
	<path class="st1" d="M43.2,24.5c-0.8,9.5-8.3,17-17.4,17c-9.2,0-16.8-7.6-17.4-17.2c-0.5,0.4-1,0.6-1.6,0.5
		c0.9,10.4,9.1,18.5,19,18.5c10,0,18.1-8.2,19-18.5C44.3,24.9,43.7,24.8,43.2,24.5z"/>
</g>
</svg>
