<?xml version="1.0" encoding="utf-8"?>
<!-- Generator: Adobe Illustrator 25.0.1, SVG Export Plug-In . SVG Version: 6.00 Build 0)  -->
<svg version="1.1" id="Layer_1" xmlns="http://www.w3.org/2000/svg" xmlns:xlink="http://www.w3.org/1999/xlink" x="0px" y="0px"
	 viewBox="0 0 792 612" style="enable-background:new 0 0 792 612;" xml:space="preserve">
<style type="text/css">
	.st0{fill:#181756;}
	.st1{fill:#F36B07;}
</style>
<g>
	<path class="st0" d="M342.5,152.5l4.3-0.3h12.3v5.5h-16.6V152.5z M346.4,149.1c0-6.1,2.8-10.5,9.7-10.5c2.1,0,4.1,0.5,5.4,1
		l-1.3,5.1c-1.1-0.5-2.2-0.7-3.2-0.7c-2.4,0-3.7,1.5-3.7,5v32.5h-6.9V149.1z"/>
	<path class="st0" d="M361.7,166.9c0-9.5,6.6-15.4,13.5-15.4c7.9,0,12.1,5.7,12.1,13.9c0,1.3-0.1,2.6-0.3,3.3h-18.6
		c0.6,5.2,3.9,8.2,8.7,8.2c2.5,0,4.7-0.8,6.8-2.1l2.3,4.3c-2.8,1.9-6.3,3.2-10.1,3.2C368.1,182.3,361.7,176.6,361.7,166.9z
		 M381.4,164.1c0-4.5-2-7.3-6-7.3c-3.4,0-6.4,2.6-7,7.3H381.4z"/>
	<path class="st0" d="M394.4,171.6v-14h-4.2v-5.2l4.5-0.3l0.8-8h5.7v8h7.5v5.5h-7.5v14c0,3.5,1.3,5.2,4.2,5.2c1,0,2.2-0.3,3.1-0.7
		l1.2,5.1c-1.6,0.5-3.6,1.1-6,1.1C396.9,182.3,394.4,178,394.4,171.6z"/>
	<path class="st0" d="M412,166.9c0-9.8,6.9-15.4,14.7-15.4c3.7,0,6.5,1.4,8.6,3.3l-3.3,4.5c-1.6-1.4-3-2.2-4.9-2.2
		c-4.7,0-8,3.9-8,9.8c0,5.9,3.2,9.8,7.8,9.8c2.3,0,4.4-1.1,6.1-2.5l2.8,4.5c-2.8,2.4-6.2,3.6-9.6,3.6
		C418.2,182.3,412,176.6,412,166.9z"/>
	<path class="st0" d="M440.1,139.3h6.9v10.9l-0.3,5.7c2.5-2.3,5.4-4.4,9.4-4.4c6.3,0,9,4.3,9,11.7v18.4h-6.9V164
		c0-4.8-1.4-6.6-4.6-6.6c-2.6,0-4.3,1.3-6.7,3.7v20.5h-6.9V139.3z"/>
	<path class="st0" d="M469.7,177.6c0-2.7,1.9-4.7,4.4-4.7s4.4,2,4.4,4.7c0,2.7-1.9,4.6-4.4,4.6S469.7,180.3,469.7,177.6z"/>
</g>
<g>
	<g>
		<path class="st1" d="M305.3,172.1c-0.9,0.5-1.6,1.2-2.4,1.5c-3.3,1.3-7-1.1-7.2-4.7c0-0.6,0-1.3,0.1-1.9c0.1-0.7,0.7-1.1,1.3-1
			c0.7,0.1,1.1,0.7,0.9,1.4c-0.1,0.9-0.2,1.7,0.2,2.5c0.6,1.4,2.2,2.1,3.6,1.7c1.5-0.4,2.4-1.9,2.2-3.4c0-0.2-0.2-0.3-0.3-0.4
			c-0.6-0.5-1.2-1-1.3-1.8c-0.1-0.6,0.1-1.1,0.7-1.3c1.5-0.5,3-0.5,4.5,0c0.7,0.2,1,0.8,0.7,1.5c-0.3,0.8-0.8,1.3-1.5,1.7
			c-0.3,0.1-0.4,0.3-0.4,0.6c0,1.8,1.3,3.2,3,3.2c1.7,0,3-1.3,3.1-3.1c0-0.4,0-0.8-0.1-1.2c-0.1-0.7,0.3-1.3,0.9-1.4
			c0.6-0.1,1.2,0.3,1.3,1c0.8,4-1.7,6.5-4.4,6.9c-1.7,0.2-3.2-0.2-4.4-1.4C305.5,172.4,305.4,172.2,305.3,172.1z"/>
		<path class="st1" d="M314.2,159.3c0,1.4-1.1,2.4-2.4,2.4c-1.3,0-2.4-1.1-2.4-2.4c0-1.3,1.1-2.4,2.4-2.4
			C313.1,156.8,314.2,157.9,314.2,159.3z"/>
		<path class="st1" d="M296.3,159.3c0-1.3,1-2.4,2.4-2.4c1.3,0,2.4,1.1,2.5,2.4c0,1.3-1.1,2.4-2.4,2.4
			C297.4,161.7,296.3,160.6,296.3,159.3z"/>
	</g>
	<path class="st1" d="M330.9,153.1c-0.1-3-1.4-4.8-4.3-5.5c-2.2-0.6-4.5-0.6-6.8-0.9c-0.8-0.1-1.7-0.3-2.4-0.7
		c-8.2-4.7-16.3-4.8-24.5,0c-0.7,0.4-1.6,0.6-2.4,0.7c-2.4,0.4-4.8,0.5-7.1,1c-2.3,0.6-3.7,2.2-3.9,4.6c-0.5,4.2,0.4,8,3,11.4
		c0.1,0.1,0.1,0.2,0.2,0.3c0.6,0.5,1.1,0.9,1.8,1.2c0.2,0,0.4,0,0.7,0.1c0.1,0,0.2-0.1,0.3-0.1c1.6-0.1,2.7-1,3.6-2.2
		c1.8-2.4,3.7-8.3,3.8-11.5c-0.5-0.1-1-0.2-1.5-0.3c-0.5,2-0.9,4-1.5,5.8c-0.6,1.8-1.4,3.5-2.4,5.1c-1.1,1.7-2.6,1.7-3.8,0
		c-2-2.9-2.7-6.1-2.2-9.6c0.2-1.6,1.1-2.7,2.6-3c2.2-0.4,4.4-0.7,6.7-0.9c1.2-0.1,2.2-0.2,3.3-1c3.7-2.6,8-3.6,12.5-3.3
		c4,0.3,7.8,1.4,10.9,4c0.3,0.2,0.8,0.2,1.2,0.2c2.4,0.2,4.8,0.2,7.1,0.7c2.6,0.5,3.4,1.8,3.5,4.4c0.1,2.9-0.5,5.7-2.1,8.2
		c-1.3,2-2.8,2.1-4.2,0.1c-1.8-2.5-2.5-5.5-3.2-8.5c-0.2-0.7-0.3-1.4-0.5-2.2c-0.6,0.1-1.1,0.2-1.8,0.3c0.9,4.4,1.6,8.8,4.7,12.3
		c0.6,0.7,1.8,1.2,2.8,1.3c0.1,0,0.1,0,0.2,0.1c0.3-0.1,0.7-0.1,1-0.1c0.1,0,0.2-0.1,0.3-0.1c0.2-0.1,0.4-0.2,0.7-0.3
		c0.2-0.2,0.4-0.4,0.7-0.5c0-0.1,0.1-0.3,0.2-0.3C330.3,160.6,331.1,156.9,330.9,153.1z"/>
	<path class="st1" d="M322.5,164.2c-0.8,9.5-8.3,17-17.4,17c-9.2,0-16.8-7.6-17.4-17.2c-0.5,0.4-1,0.6-1.6,0.5
		c0.9,10.4,9.1,18.5,19,18.5c10,0,18.1-8.2,19-18.5C323.6,164.6,323,164.5,322.5,164.2z"/>
</g>
</svg>
